# Alias OBJ Model File
# Exported from SketchUp, (c) 2000-2012 Trimble Navigation Limited
# File units = inches

mtllib Deadmau5.mtl

g Mesh1 DeadMau5_1 Model

usemtl deadmau5_grammys_2009
v 11.5702 70.4443 7.57888
vt 0.54953 0.797385
vn -0.363411 0 0.931629
v 11.209 70.6709 7.43799
vt 0.543934 0.79975
v 10.8384 70.8791 7.29341
vt 0.538192 0.801924
v 10.4591 71.0685 7.14546
vt 0.532315 0.803902
v 10.072 71.2386 6.99446
vt 0.526318 0.805678
v 9.67791 71.3892 6.84073
vt 0.520212 0.807251
v 9.2777 71.5199 6.68462
vt 0.514011 0.808615
v 8.87225 71.6304 6.52646
vt 0.50773 0.809769
v 8.46243 71.7205 6.36659
vt 0.50138 0.810709
v 8.04914 71.7899 6.20538
vt 0.494977 0.811434
v 7.63328 71.8386 6.04316
vt 0.488534 0.811942
v 7.21576 71.8663 5.88029
vt 0.482065 0.812232
v 6.79749 71.8731 5.71713
vt 0.475585 0.812303
v 6.68589 73.1491 5.6736
vt 0.473855 0.825625
v 6.40854 74.3957 5.56541
vt 0.469558 0.83864
v 5.97092 75.5881 5.3947
vt 0.462778 0.85109
v 5.38171 76.7028 5.16486
vt 0.453649 0.862728
v 4.65258 77.7177 4.88044
vt 0.442353 0.873325
v 3.79795 78.6127 4.54706
vt 0.429111 0.882669
v 2.83474 79.3701 4.17134
vt 0.414188 0.890577
v 1.78204 79.9749 3.76069
vt 0.397878 0.896891
v 0.660673 80.4151 3.32327
vt 0.380504 0.901487
v -0.507152 80.682 2.86772
vt 0.362411 0.904273
v -1.69831 80.7703 2.40307
vt 0.343956 0.905195
v -2.88923 80.6782 1.93852
vt 0.325504 0.904234
v -3.51298 80.5448 1.6952
vt 0.31584 0.90284
v -4.11951 80.3393 1.45861
vt 0.306443 0.900695
v -4.70163 80.0642 1.23153
vt 0.297424 0.897823
v -5.25243 79.7229 1.01668
vt 0.28889 0.894259
v -5.76539 79.3192 0.816581
vt 0.280943 0.890045
v -6.23441 78.8581 0.633622
vt 0.273676 0.885231
v -6.65395 78.345 0.469969
vt 0.267176 0.879874
v -7.01902 77.786 0.327563
vt 0.26152 0.874037
v -7.32529 77.1877 0.208091
vt 0.256775 0.86779
v -7.56914 76.5571 0.112972
vt 0.252997 0.861207
v -7.74766 75.9019 0.0433331
vt 0.250231 0.854366
v -7.85875 75.2297 1.43471e-015
vt 0.24851 0.847347
v -7.73337 74.6151 0.0489083
vt 0.250452 0.840931
v -7.56663 74.012 0.113951
vt 0.253036 0.834634
v -7.35941 73.4236 0.194782
vt 0.256246 0.82849
v -7.11282 72.8528 0.290973
vt 0.260067 0.822532
v -6.82816 72.3029 0.402012
vt 0.264477 0.81679
v -6.50695 71.7767 0.527311
vt 0.269453 0.811296
v -6.15089 71.277 0.666203
vt 0.27497 0.806079
v -5.76187 70.8065 0.817952
vt 0.280997 0.801166
v -5.34197 70.3676 0.98175
vt 0.287503 0.796584
v -4.8934 69.9627 1.15673
vt 0.294453 0.792357
v -4.41855 69.5939 1.34196
vt 0.30181 0.788507
v -3.91994 69.2633 1.53646
vt 0.309535 0.785054
v -3.55526 68.9955 1.67871
vt 0.315185 0.782259
v -3.17993 68.7454 1.82512
vt 0.321 0.779647
v -2.79466 68.5132 1.97541
vt 0.32697 0.777223
v -2.40021 68.2996 2.12927
vt 0.333081 0.774992
v -1.99736 68.1048 2.28642
vt 0.339322 0.772959
v -1.58689 67.9293 2.44654
vt 0.345682 0.771127
v -1.1696 67.7735 2.60932
vt 0.352147 0.7695
v -0.746301 67.6376 2.77444
vt 0.358706 0.768081
v -0.317826 67.5219 2.94158
vt 0.365344 0.766874
v 0.114991 67.4267 3.11041
vt 0.37205 0.765879
v 0.551306 67.352 3.28061
vt 0.37881 0.7651
v 0.990267 67.2981 3.45184
vt 0.385611 0.764537
v 0.857113 66.6855 3.3999
vt 0.383548 0.758141
v 0.765879 66.0641 3.36431
vt 0.382134 0.751652
v 0.717048 65.4371 3.34526
vt 0.381378 0.745107
v 0.710881 64.8081 3.34286
vt 0.381282 0.738539
v 0.74741 64.1802 3.35711
vt 0.381848 0.731984
v 0.826441 63.5568 3.38793
vt 0.383073 0.725475
v 0.947555 62.9413 3.43518
vt 0.384949 0.719049
v 1.11011 62.3369 3.49859
vt 0.387468 0.712738
v 1.31324 61.7468 3.57782
vt 0.390615 0.706577
v 1.55586 61.1741 3.67247
vt 0.394374 0.700598
v 1.8367 60.6219 3.78202
vt 0.398725 0.694833
v 2.15425 60.0932 3.90589
vt 0.403645 0.689312
v 0.76975 59.6106 3.36582
vt 0.382194 0.684274
v -0.971456 59.0037 2.68661
vt 0.355217 0.677937
v -2.35016 58.0696 2.1488
vt 0.333856 0.668185
v -2.91343 57.3531 1.92908
vt 0.325129 0.660704
v -3.1448 54.7399 1.83882
vt 0.321545 0.633421
v -3.34312 52.5 1.76146
vt 0.318472 0.610034
v -3.80104 50.6259 1.58284
vt 0.311377 0.590467
v -3.80104 49.8552 1.58284
vt 0.311377 0.582421
v -3.37455 48.8964 1.7492
vt 0.317985 0.572411
v -3.37455 48.2093 1.7492
vt 0.317985 0.565237
v -3.8968 46.9538 1.54548
vt 0.309894 0.552128
v -3.8968 44.8913 1.54548
vt 0.309894 0.530594
v -3.51847 44.2607 1.69306
vt 0.315755 0.524011
v -3.838 43.5937 1.56842
vt 0.310805 0.517047
v -3.838 42.5474 1.56842
vt 0.310805 0.506122
v -3.30202 41.4376 1.7775
vt 0.319109 0.494536
v -2.65884 40.1059 2.02839
vt 0.329074 0.480632
v -2.1878 39.7385 2.21213
vt 0.336372 0.476796
v -2.99068 38.7486 1.89895
vt 0.323933 0.466461
v -2.99068 38.0952 1.89895
vt 0.323933 0.459639
v -2.43593 37.7515 2.11534
vt 0.332527 0.456051
v -2.43593 37.3765 2.11534
vt 0.332527 0.452136
v -2.17913 36.8862 2.21552
vt 0.336506 0.447016
v -1.68568 36.6968 2.408
vt 0.344151 0.445039
v -1.68568 35.3306 2.408
vt 0.344151 0.430775
v -1.27427 34.9815 2.56848
vt 0.350525 0.42713
v -1.27427 32.419 2.56848
vt 0.350525 0.400376
v -1.27427 31.2315 2.56848
vt 0.350525 0.387978
v -1.62364 31.2315 2.4322
vt 0.345113 0.387978
v -1.62364 29.5029 2.4322
vt 0.345113 0.36993
v -1.36635 27.9015 2.53256
vt 0.349099 0.35321
v -1.36635 24.9015 2.53256
vt 0.349099 0.321888
v -1.36635 23.2765 2.53256
vt 0.349099 0.304922
v -1.03358 21.4359 2.66237
vt 0.354255 0.285705
v -1.03358 19.9359 2.66237
vt 0.354255 0.270044
v -0.6451 18.6914 2.81391
vt 0.360274 0.25705
v -1.23127 16.6617 2.58526
vt 0.351192 0.235859
v -1.23127 14.7242 2.58526
vt 0.351192 0.21563
v -1.60052 11.4355 2.44122
vt 0.345471 0.181294
v -1.73986 10.1944 2.38687
vt 0.343312 0.168336
v -2.31295 8.96472 2.16332
vt 0.334433 0.155497
v -2.31295 7.90222 2.16332
vt 0.334433 0.144404
v -1.98954 7.54237 2.28947
vt 0.339444 0.140647
v -2.23044 6.97337 2.1955
vt 0.335711 0.134706
v -2.23044 6.22091 2.1955
vt 0.335711 0.12685
v -1.83814 5.67746 2.34853
vt 0.341789 0.121176
v -1.83814 4.80246 2.34853
vt 0.341789 0.112041
v -3.00012 2.78134 1.89526
vt 0.323786 0.0909386
v -3.30591 2.24946 1.77598
vt 0.319048 0.0853855
v -3.30591 0.499461 1.77598
vt 0.319048 0.0671143
v -2.86578 0 1.94767
vt 0.325868 0.0618996
v -2.6917 0 2.01557
vt 0.328565 0.0618996
v -0.537312 0 2.85596
vt 0.361943 0.0618996
v 0.0300483 0.537845 3.07728
vt 0.370734 0.0675151
v 0.254656 1.70061 3.16489
vt 0.374214 0.0796552
v 1.37636 4.10332 3.60245
vt 0.391593 0.104741
v 2.45256 5.39869 4.02225
vt 0.408267 0.118266
v 2.45256 6.58619 4.02225
vt 0.408267 0.130664
v 2.1452 7.72694 3.90236
vt 0.403505 0.142574
v 2.95903 8.7065 4.21982
vt 0.416114 0.152801
v 2.67507 11.9422 4.10905
vt 0.411714 0.186584
v 2.67507 17.6922 4.10905
vt 0.411714 0.246618
v 3.20877 18.8032 4.31724
vt 0.419983 0.258217
v 5.85866 30.0748 5.35091
vt 0.461039 0.375901
v 6.34875 29.2988 5.54209
vt 0.468632 0.367799
v 6.68479 27.4589 5.67317
vt 0.473838 0.348588
v 6.68479 23.4589 5.67317
vt 0.473838 0.306826
v 6.68479 22.0214 5.67317
vt 0.473838 0.291817
v 7.45332 20.3376 5.97296
vt 0.485746 0.274238
v 7.45332 18.9529 5.97296
vt 0.485746 0.25978
v 6.96863 18.173 5.78389
vt 0.478236 0.251638
v 6.96863 16.2355 5.78389
vt 0.478236 0.231409
v 6.96863 13.923 5.78389
vt 0.478236 0.207265
v 6.70111 11.7544 5.67953
vt 0.474091 0.184624
v 6.70111 9.62943 5.67953
vt 0.474091 0.162437
v 7.11977 8.39626 5.84285
vt 0.480578 0.149562
v 6.10526 7.55673 5.44711
vt 0.46486 0.140797
v 6.10526 7.18173 5.44711
vt 0.46486 0.136882
v 6.86063 6.40185 5.74176
vt 0.476563 0.128739
v 6.86063 3.96435 5.74176
vt 0.476563 0.10329
v 7.21095 3.6348 5.87841
vt 0.48199 0.0998493
v 8.69159 3.06754 6.45598
vt 0.504931 0.0939268
v 9.84319 2.62634 6.9052
vt 0.522773 0.0893203
v 10.6296 1.98111 7.21198
vt 0.534957 0.0825837
v 11.1144 1.35706 7.40106
vt 0.542468 0.0760683
v 12.0379 0.974566 7.7613
vt 0.556776 0.0720748
v 13.9593 0.974566 8.51084
vt 0.586546 0.0720748
v 14.7505 1.61317 8.81944
vt 0.598803 0.0787422
v 14.7505 2.62634 8.81944
vt 0.598803 0.0893203
v 13.9108 3.49247 8.4919
vt 0.585794 0.0983633
v 12.7205 4.27832 8.02758
vt 0.567352 0.106568
v 11.8447 5.10219 7.68595
vt 0.553783 0.11517
v 11.4618 5.72955 7.53658
vt 0.54785 0.12172
v 11.0151 6.46146 7.36233
vt 0.540929 0.129362
v 11.4618 6.77561 7.53658
vt 0.54785 0.132641
v 11.4618 7.86592 7.53658
vt 0.54785 0.144025
v 11.4618 9.05342 7.53658
vt 0.54785 0.156423
v 10.9077 9.77815 7.32046
vt 0.539266 0.16399
v 10.9077 10.9656 7.32046
vt 0.539266 0.176388
v 11.1773 14.4537 7.42562
vt 0.543443 0.212806
v 10.9718 15.7475 7.34544
vt 0.540258 0.226314
v 11.3211 15.7475 7.48172
vt 0.545671 0.226314
v 11.3211 17.5686 7.48172
vt 0.545671 0.245327
v 10.7124 19.6562 7.24426
vt 0.53624 0.267123
v 10.7124 20.4713 7.24426
vt 0.53624 0.275633
v 11.0207 20.8461 7.36453
vt 0.541016 0.279546
v 11.0207 23.4086 7.36453
vt 0.541016 0.306301
v 10.8422 24.1981 7.29489
vt 0.538251 0.314544
v 11.556 24.8407 7.57335
vt 0.549311 0.321253
v 12.0311 31.8848 7.75865
vt 0.55667 0.394798
v 11.7346 33.8593 7.64302
vt 0.552078 0.415413
v 11.7346 36.4843 7.64302
vt 0.552078 0.44282
v 12.4334 36.4843 7.91558
vt 0.562903 0.44282
v 12.4334 38.0468 7.91558
vt 0.562903 0.459133
v 12.4334 39.802 7.91558
vt 0.562903 0.477459
v 12.4334 41.2919 7.91558
vt 0.562903 0.493015
v 12.1181 43.7058 7.79261
vt 0.558019 0.518218
v 13.6143 48.1097 8.37623
vt 0.581199 0.564196
v 13.6143 49.6378 8.37623
vt 0.581199 0.580151
v 14.6951 54.5656 8.79784
vt 0.597945 0.631601
v 14.1737 56.3551 8.59446
vt 0.589867 0.650285
v 13.3566 57.6482 8.27572
vt 0.577208 0.663786
v 12.0668 59.0037 7.77259
vt 0.557224 0.677937
v 12.5963 59.5842 7.97916
vt 0.565428 0.683999
v 12.791 59.8074 8.05508
vt 0.568444 0.686328
v 12.9762 60.0396 8.12733
vt 0.571314 0.688753
v 13.1516 60.2804 8.19575
vt 0.574031 0.691267
v 13.3168 60.5294 8.2602
vt 0.576591 0.693867
v 13.4716 60.786 8.32057
vt 0.578989 0.696546
v 13.6155 61.0497 8.37673
vt 0.581219 0.699299
v 13.7484 61.3201 8.42856
vt 0.583278 0.702122
v 13.87 61.5965 8.47598
vt 0.585161 0.705008
v 13.9799 61.8785 8.51887
vt 0.586865 0.707952
v 14.0781 62.1654 8.55717
vt 0.588386 0.710948
v 14.1643 62.4568 8.59078
vt 0.589721 0.71399
v 14.2383 62.752 8.61965
vt 0.590868 0.717072
v 14.4489 62.8866 8.70182
vt 0.594131 0.718478
v 14.6424 63.0483 8.77728
vt 0.597129 0.720166
v 14.8157 63.2345 8.84488
vt 0.599813 0.72211
v 14.9661 63.4423 8.90356
vt 0.602144 0.724279
v 15.0914 63.6685 8.95242
vt 0.604085 0.726641
v 15.1895 63.9097 8.99072
vt 0.605606 0.729159
v 15.2591 64.162 9.01785
vt 0.606683 0.731794
v 15.2989 64.4217 9.03339
vt 0.607301 0.734505
v 15.3085 64.6846 9.03712
vt 0.607449 0.73725
v 15.2876 64.9469 9.02896
vt 0.607125 0.739988
v 15.2365 65.2043 9.00905
vt 0.606334 0.742675
v 15.1562 65.4529 8.9777
vt 0.605089 0.745271
v 15.6709 65.559 9.17849
vt 0.613064 0.746379
v 16.185 65.6685 9.37905
vt 0.62103 0.747522
v 16.6985 65.7814 9.57935
vt 0.628985 0.748701
v 17.2114 65.8977 9.7794
vt 0.636931 0.749916
v 17.7235 66.0175 9.97918
vt 0.644866 0.751166
v 18.235 66.1406 10.1787
vt 0.65279 0.752451
v 18.7457 66.2671 10.3779
vt 0.660703 0.753772
v 19.2557 66.3969 10.5769
vt 0.668605 0.755128
v 19.765 66.5302 10.7755
vt 0.676495 0.756519
v 20.2735 66.6668 10.9739
vt 0.684373 0.757945
v 20.7811 66.8068 11.1719
vt 0.692239 0.759407
v 21.288 66.9502 11.3696
vt 0.700092 0.760904
v 21.8366 67.1357 11.5836
vt 0.708591 0.762841
v 22.3676 67.3731 11.7907
vt 0.716818 0.765319
v 22.8768 67.6602 11.9894
vt 0.724708 0.768317
v 23.3601 67.9949 12.1779
vt 0.732196 0.771812
v 23.8138 68.3745 12.3549
vt 0.739225 0.775775
v 24.2341 68.796 12.5188
vt 0.745737 0.780176
v 24.6178 69.256 12.6685
vt 0.751681 0.784979
v 24.9617 69.7509 12.8027
vt 0.75701 0.790145
v 25.2632 70.2767 12.9203
vt 0.761681 0.795635
v 25.5199 70.8292 13.0204
vt 0.765658 0.801404
v 25.7297 71.4041 13.1022
vt 0.768908 0.807406
v 25.8909 71.9968 13.1651
vt 0.771406 0.813594
v 25.8284 72.5283 13.1408
vt 0.770439 0.819144
v 25.7062 73.0478 13.0931
vt 0.768545 0.824568
v 25.526 73.5475 13.0228
vt 0.765753 0.829785
v 25.2906 74.02 12.9309
vt 0.762105 0.834717
v 25.0033 74.4582 12.8189
vt 0.757655 0.839292
v 24.6686 74.8556 12.6883
vt 0.752469 0.843442
v 24.2913 75.2064 12.5411
vt 0.746623 0.847105
v 23.8771 75.5054 12.3796
vt 0.740205 0.850226
v 23.432 75.7481 12.206
vt 0.73331 0.85276
v 22.9628 75.9308 12.0229
vt 0.72604 0.854668
v 22.4763 76.051 11.8332
vt 0.718503 0.855922
v 21.9799 76.1067 11.6395
vt 0.710811 0.856505
v 20.9272 76.1058 11.2289
vt 0.694502 0.856495
v 19.8788 76.0052 10.8199
vt 0.678258 0.855444
v 18.8427 75.8058 10.4157
vt 0.662205 0.853362
v 17.827 75.5091 10.0195
vt 0.646469 0.850265
v 16.8396 75.1174 9.63438
vt 0.631171 0.846175
v 15.8883 74.6338 9.26328
vt 0.616432 0.841126
v 14.9804 74.062 8.90913
vt 0.602365 0.835156
v 14.123 73.4065 8.57467
vt 0.589081 0.828313
v 13.3228 72.6725 8.26252
vt 0.576683 0.820649
v 12.586 71.8655 7.97511
vt 0.565268 0.812223
v 11.9183 70.992 7.71468
vt 0.554924 0.803103
f 1/1/1 2/2/1 3/3/1 4/4/1 5/5/1 6/6/1 7/7/1 8/8/1 9/9/1 10/10/1 11/11/1 12/12/1 13/13/1 14/14/1 15/15/1 16/16/1 17/17/1 18/18/1 19/19/1 20/20/1 21/21/1 22/22/1 23/23/1 24/24/1 25/25/1 26/26/1 27/27/1 28/28/1 29/29/1 30/30/1 31/31/1 32/32/1 33/33/1 34/34/1 35/35/1 36/36/1 37/37/1 38/38/1 39/39/1 40/40/1 41/41/1 42/42/1 43/43/1 44/44/1 45/45/1 46/46/1 47/47/1 48/48/1 49/49/1 50/50/1 51/51/1 52/52/1 53/53/1 54/54/1 55/55/1 56/56/1 57/57/1 58/58/1 59/59/1 60/60/1 61/61/1 62/62/1 63/63/1 64/64/1 65/65/1 66/66/1 67/67/1 68/68/1 69/69/1 70/70/1 71/71/1 72/72/1 73/73/1 74/74/1 75/75/1 76/76/1 77/77/1 78/78/1 79/79/1 80/80/1 81/81/1 82/82/1 83/83/1 84/84/1 85/85/1 86/86/1 87/87/1 88/88/1 89/89/1 90/90/1 91/91/1 92/92/1 93/93/1 94/94/1 95/95/1 96/96/1 97/97/1 98/98/1 99/99/1 100/100/1 101/101/1 102/102/1 103/103/1 104/104/1 105/105/1 106/106/1 107/107/1 108/108/1 109/109/1 110/110/1 111/111/1 112/112/1 113/113/1 114/114/1 115/115/1 116/116/1 117/117/1 118/118/1 119/119/1 120/120/1 121/121/1 122/122/1 123/123/1 124/124/1 125/125/1 126/126/1 127/127/1 128/128/1 129/129/1 130/130/1 131/131/1 132/132/1 133/133/1 134/134/1 135/135/1 136/136/1 137/137/1 138/138/1 139/139/1 140/140/1 141/141/1 142/142/1 143/143/1 144/144/1 145/145/1 146/146/1 147/147/1 148/148/1 149/149/1 150/150/1 151/151/1 152/152/1 153/153/1 154/154/1 155/155/1 156/156/1 157/157/1 158/158/1 159/159/1 160/160/1 161/161/1 162/162/1 163/163/1 164/164/1 165/165/1 166/166/1 167/167/1 168/168/1 169/169/1 170/170/1 171/171/1 172/172/1 173/173/1 174/174/1 175/175/1 176/176/1 177/177/1 178/178/1 179/179/1 180/180/1 181/181/1 182/182/1 183/183/1 184/184/1 185/185/1 186/186/1 187/187/1 188/188/1 189/189/1 190/190/1 191/191/1 192/192/1 193/193/1 194/194/1 195/195/1 196/196/1 197/197/1 198/198/1 199/199/1 200/200/1 201/201/1 202/202/1 203/203/1 204/204/1 205/205/1 206/206/1 207/207/1 208/208/1 209/209/1 210/210/1 211/211/1 212/212/1 213/213/1 214/214/1 215/215/1 216/216/1 217/217/1 218/218/1 219/219/1 220/220/1 221/221/1 222/222/1 223/223/1 224/224/1 225/225/1 226/226/1 227/227/1 228/228/1 229/229/1 230/230/1 231/231/1 232/232/1 233/233/1 234/234/1 235/235/1 236/236/1 237/237/1 238/238/1 239/239/1 240/240/1 241/241/1 242/242/1 243/243/1 244/244/1 245/245/1 246/246/1 247/247/1 248/248/1 249/249/1 250/250/1 251/251/1 252/252/1 253/253/1 254/254/1 255/255/1 256/256/1 257/257/1 258/258/1 259/259/1 260/260/1 261/261/1 262/262/1 263/263/1 264/264/1 265/265/1 266/266/1 267/267/1 268/268/1 

